<svg width="600" height="400" viewBox="0 0 600 400" xmlns="http://www.w3.org/2000/svg">
<rect x="0" y="0" width="600" height="400" fill="#FFFFFF"/>
<g>
<line stroke-width="2" x1="272" y1="45" x2="297" y2="45" stroke="#5470C6"/>
<circle cx="284.5" cy="45" r="5.5" stroke-width="2" stroke="#5470C6" fill="#FFFFFF"/>
<text font-size="14" x="300" y="49" font-family="Roboto" fill="#464646">
DSO
</text>
</g>
<g stroke="#E0E6F2">
<line stroke-width="1" x1="46" y1="62" x2="595" y2="62"/><line stroke-width="1" x1="46" y1="112.5" x2="595" y2="112.5"/><line stroke-width="1" x1="46" y1="163" x2="595" y2="163"/><line stroke-width="1" x1="46" y1="213.5" x2="595" y2="213.5"/><line stroke-width="1" x1="46" y1="264" x2="595" y2="264"/><line stroke-width="1" x1="46" y1="314.5" x2="595" y2="314.5"/>
</g>
<g>

<text font-size="14" x="2" y="67" font-family="Roboto" fill="#6E7079">
0.6 m
</text>
<text font-size="14" x="2" y="117.5" font-family="Roboto" fill="#6E7079">
0.4 m
</text>
<text font-size="14" x="2" y="168" font-family="Roboto" fill="#6E7079">
0.2 m
</text>
<text font-size="14" x="14" y="218.5" font-family="Roboto" fill="#6E7079">
0 m
</text>
<text font-size="14" x="-2" y="269" font-family="Roboto" fill="#6E7079">
-0.2 m
</text>
<text font-size="14" x="-2" y="319.5" font-family="Roboto" fill="#6E7079">
-0.4 m
</text>
<text font-size="14" x="-2" y="370" font-family="Roboto" fill="#6E7079">
-0.6 m
</text>
</g>
<g>
<g stroke="#6E7079">
<line stroke-width="1" x1="46" y1="365" x2="595" y2="365"/>
<line stroke-width="1" x1="46" y1="365" x2="46" y2="370"/>
<line stroke-width="1" x1="91.8" y1="365" x2="91.8" y2="370"/>
<line stroke-width="1" x1="137.5" y1="365" x2="137.5" y2="370"/>
<line stroke-width="1" x1="183.2" y1="365" x2="183.2" y2="370"/>
<line stroke-width="1" x1="229" y1="365" x2="229" y2="370"/>
<line stroke-width="1" x1="274.8" y1="365" x2="274.8" y2="370"/>
<line stroke-width="1" x1="320.5" y1="365" x2="320.5" y2="370"/>
<line stroke-width="1" x1="366.2" y1="365" x2="366.2" y2="370"/>
<line stroke-width="1" x1="412" y1="365" x2="412" y2="370"/>
<line stroke-width="1" x1="457.8" y1="365" x2="457.8" y2="370"/>
<line stroke-width="1" x1="503.5" y1="365" x2="503.5" y2="370"/>
<line stroke-width="1" x1="549.2" y1="365" x2="549.2" y2="370"/>
<line stroke-width="1" x1="595" y1="365" x2="595" y2="370"/>
</g>
<text font-size="14" x="64.9" y="384" font-family="Roboto" fill="#6E7079">
0
</text>
<text font-size="14" x="110.6" y="384" font-family="Roboto" fill="#6E7079">
5
</text>
<text font-size="14" x="152.4" y="384" font-family="Roboto" fill="#6E7079">
10
</text>
<text font-size="14" x="198.1" y="384" font-family="Roboto" fill="#6E7079">
15
</text>
<text font-size="14" x="243.9" y="384" font-family="Roboto" fill="#6E7079">
20
</text>
<text font-size="14" x="289.6" y="384" font-family="Roboto" fill="#6E7079">
25
</text>
<text font-size="14" x="335.4" y="384" font-family="Roboto" fill="#6E7079">
30
</text>
<text font-size="14" x="381.1" y="384" font-family="Roboto" fill="#6E7079">
35
</text>
<text font-size="14" x="426.9" y="384" font-family="Roboto" fill="#6E7079">
40
</text>
<text font-size="14" x="472.6" y="384" font-family="Roboto" fill="#6E7079">
45
</text>
<text font-size="14" x="518.4" y="384" font-family="Roboto" fill="#6E7079">
50
</text>
<text font-size="14" x="564.1" y="384" font-family="Roboto" fill="#6E7079">
55
</text>
</g>
<g>
<path d="M 68.9 222.2 L 114.6 213.9 L 160.4 204.4 L 206.1 192.5 L 251.9 176.8 L 297.6 161.8 L 343.4 144.7 L 389.1 124.2 L 434.9 104.5 L 480.6 88.7 L 526.4 79.3 L 572.1 80.8" stroke-width="2" fill="none" stroke="#5470C6"/>
<circle cx="68.9" cy="222.2" r="2" stroke-width="2" stroke="#5470C6" fill="#FFFFFF"/>
<circle cx="114.6" cy="213.9" r="2" stroke-width="2" stroke="#5470C6" fill="#FFFFFF"/>
<circle cx="160.4" cy="204.4" r="2" stroke-width="2" stroke="#5470C6" fill="#FFFFFF"/>
<circle cx="206.1" cy="192.5" r="2" stroke-width="2" stroke="#5470C6" fill="#FFFFFF"/>
<circle cx="251.9" cy="176.8" r="2" stroke-width="2" stroke="#5470C6" fill="#FFFFFF"/>
<circle cx="297.6" cy="161.8" r="2" stroke-width="2" stroke="#5470C6" fill="#FFFFFF"/>
<circle cx="343.4" cy="144.7" r="2" stroke-width="2" stroke="#5470C6" fill="#FFFFFF"/>
<circle cx="389.1" cy="124.2" r="2" stroke-width="2" stroke="#5470C6" fill="#FFFFFF"/>
<circle cx="434.9" cy="104.5" r="2" stroke-width="2" stroke="#5470C6" fill="#FFFFFF"/>
<circle cx="480.6" cy="88.7" r="2" stroke-width="2" stroke="#5470C6" fill="#FFFFFF"/>
<circle cx="526.4" cy="79.3" r="2" stroke-width="2" stroke="#5470C6" fill="#FFFFFF"/>
<circle cx="572.1" cy="80.8" r="2" stroke-width="2" stroke="#5470C6" fill="#FFFFFF"/>
</g>
</svg>